<mxfile host="app.diagrams.net" agent="Mozilla/5.0 (Windows NT 10.0; Win64; x64; rv:139.0) Gecko/20100101 Firefox/139.0" version="27.1.5">
  <diagram name="Страница — 1" id="rCfnhZvIq9waGADby3YH">
    <mxGraphModel dx="810" dy="484" grid="1" gridSize="10" guides="1" tooltips="1" connect="1" arrows="1" fold="1" page="1" pageScale="1" pageWidth="1169" pageHeight="827" math="0" shadow="0">
      <root>
        <mxCell id="0" />
        <mxCell id="1" parent="0" />
        <mxCell id="-TdVQ2mUSapPiThazIke-2" value="SIPp uac.xml" style="text;strokeColor=none;align=center;fillColor=none;html=1;verticalAlign=middle;whiteSpace=wrap;rounded=0;" vertex="1" parent="1">
          <mxGeometry x="289.5" y="583" width="110" height="30" as="geometry" />
        </mxCell>
        <mxCell id="-TdVQ2mUSapPiThazIke-4" value="SIPp uas.xml" style="text;strokeColor=none;align=center;fillColor=none;html=1;verticalAlign=middle;whiteSpace=wrap;rounded=0;" vertex="1" parent="1">
          <mxGeometry x="714" y="583" width="110" height="30" as="geometry" />
        </mxCell>
        <mxCell id="-TdVQ2mUSapPiThazIke-5" value="" style="shape=mxgraph.cisco.modems_and_phones.softphone;sketch=0;html=1;pointerEvents=1;dashed=0;fillColor=#036897;strokeColor=#ffffff;strokeWidth=2;verticalLabelPosition=bottom;verticalAlign=top;align=center;outlineConnect=0;" vertex="1" parent="1">
          <mxGeometry x="738.5" y="503" width="61" height="56" as="geometry" />
        </mxCell>
        <mxCell id="-TdVQ2mUSapPiThazIke-6" value="" style="shape=mxgraph.cisco.modems_and_phones.softphone;sketch=0;html=1;pointerEvents=1;dashed=0;fillColor=#036897;strokeColor=#ffffff;strokeWidth=2;verticalLabelPosition=bottom;verticalAlign=top;align=center;outlineConnect=0;" vertex="1" parent="1">
          <mxGeometry x="314" y="503" width="61" height="56" as="geometry" />
        </mxCell>
        <mxCell id="-TdVQ2mUSapPiThazIke-7" value="" style="shape=mxgraph.cisco.misc.cisco_unity_express;sketch=0;html=1;pointerEvents=1;dashed=0;fillColor=#036897;strokeColor=#ffffff;strokeWidth=2;verticalLabelPosition=bottom;verticalAlign=top;align=center;outlineConnect=0;" vertex="1" parent="1">
          <mxGeometry x="521.5" y="303" width="77" height="67" as="geometry" />
        </mxCell>
        <mxCell id="-TdVQ2mUSapPiThazIke-8" value="" style="endArrow=classic;html=1;rounded=0;" edge="1" parent="1" source="-TdVQ2mUSapPiThazIke-6" target="-TdVQ2mUSapPiThazIke-7">
          <mxGeometry relative="1" as="geometry">
            <mxPoint x="514" y="463" as="sourcePoint" />
            <mxPoint x="674" y="463" as="targetPoint" />
          </mxGeometry>
        </mxCell>
        <mxCell id="-TdVQ2mUSapPiThazIke-9" value="CALL FLOW" style="edgeLabel;resizable=0;html=1;;align=center;verticalAlign=middle;" connectable="0" vertex="1" parent="-TdVQ2mUSapPiThazIke-8">
          <mxGeometry relative="1" as="geometry" />
        </mxCell>
        <mxCell id="-TdVQ2mUSapPiThazIke-12" value="" style="endArrow=classic;html=1;rounded=0;" edge="1" parent="1" source="-TdVQ2mUSapPiThazIke-7" target="-TdVQ2mUSapPiThazIke-5">
          <mxGeometry relative="1" as="geometry">
            <mxPoint x="514" y="463" as="sourcePoint" />
            <mxPoint x="674" y="463" as="targetPoint" />
          </mxGeometry>
        </mxCell>
        <mxCell id="-TdVQ2mUSapPiThazIke-13" value="CALL FLOW" style="edgeLabel;resizable=0;html=1;;align=center;verticalAlign=middle;" connectable="0" vertex="1" parent="-TdVQ2mUSapPiThazIke-12">
          <mxGeometry relative="1" as="geometry" />
        </mxCell>
        <mxCell id="-TdVQ2mUSapPiThazIke-16" value="Asterisk" style="text;strokeColor=none;align=center;fillColor=none;html=1;verticalAlign=middle;whiteSpace=wrap;rounded=0;" vertex="1" parent="1">
          <mxGeometry x="530" y="383" width="60" height="30" as="geometry" />
        </mxCell>
        <mxCell id="-TdVQ2mUSapPiThazIke-22" value="&lt;h1 style=&quot;margin-top: 0px;&quot;&gt;extensions.conf&lt;/h1&gt;&lt;p&gt;exten =&amp;gt;&amp;nbsp;&lt;/p&gt;" style="text;html=1;whiteSpace=wrap;overflow=hidden;rounded=0;" vertex="1" parent="1">
          <mxGeometry x="460" y="130" width="250" height="120" as="geometry" />
        </mxCell>
        <mxCell id="-TdVQ2mUSapPiThazIke-23" value="&lt;h1 style=&quot;margin-top: 0px;&quot;&gt;pjsip.conf&lt;/h1&gt;&lt;p&gt;Lorem ipsum dolor sit amet, consectetur adipisicing elit, sed do eiusmod tempor incididunt ut labore et dolore magna aliqua.&lt;/p&gt;" style="text;html=1;whiteSpace=wrap;overflow=hidden;rounded=0;" vertex="1" parent="1">
          <mxGeometry x="214" y="313" width="180" height="120" as="geometry" />
        </mxCell>
        <mxCell id="-TdVQ2mUSapPiThazIke-24" value="&lt;h1 style=&quot;margin-top: 0px;&quot;&gt;pjsip.conf&lt;/h1&gt;&lt;p&gt;Lorem ipsum dolor sit amet, consectetur adipisicing elit, sed do eiusmod tempor incididunt ut labore et dolore magna aliqua.&lt;/p&gt;" style="text;html=1;whiteSpace=wrap;overflow=hidden;rounded=0;" vertex="1" parent="1">
          <mxGeometry x="774" y="323" width="180" height="120" as="geometry" />
        </mxCell>
      </root>
    </mxGraphModel>
  </diagram>
</mxfile>
